#!OML:ASF F:\VICON\USERDATA\INSTALL\rory3\rory3.ASF
:FULLY-SPECIFIED
:DEGREES
46
root 0.05424683250966353 17.166240346862097 13.398872430187188 6.020564277586169 -1.5366785795603461 -5.685073510804672
lfemur -22.326564736221624 5.407601665003835 -13.03216557927369
ltibia 103.7672583060983
lfoot -3.0709137461146785 -3.324381749076525
ltoes -4.047625533878205
rfemur -18.550819850239968 2.6248159913716442 36.41566116117341
rtibia 61.91558028280537
rfoot -17.117168054639016 -18.450405833752274
rtoes -3.1859983612348146
lowerback 15.701152787054347 0.3627013666410897 4.888436202832541
upperback -1.1661073218689542 1.520058253724594 3.2819639080169267
thorax -8.564982119998973 0.634210519559349 1.106926400121725
lowerneck -19.9994957947782 -3.289068841559872 -2.7254471203753132
upperneck 13.614030286809722 -4.04871217813964 2.5451587867926966
head 7.9248834416850995 -1.7521217602472323 0.6545100315599073
lclavicle -1.7157212967901496e-15 1.793152696868843e-15
lhumerus -54.06678667394762 -14.815421687414517 100.31356771549949
lradius 91.58958911776186
lwrist 31.69337583803964
lhand -25.092908021383153 3.126379258850953
lfingers 7.12502
lthumb 1.5423084015761546 32.850368304937234
rclavicle -1.7220746698446734e-15 1.787992343807305e-15
rhumerus -50.23155838083211 6.784139763281704 -96.06640227038821
rradius 110.63305176572403
rwrist -11.782304418107692
rhand -16.664252607893175 39.69598103767769
rfingers 7.12502
rthumb 10.060007568732 9.994021622188242
47
root 0.09488440788804006 17.327225335050922 14.40651960973439 6.300996059344307 0.2559747962364711 -5.640024871400572
lfemur -26.90962881792162 3.6279879043544967 -13.191609495105656
ltibia 102.11594168385794
lfoot -4.600000714350346 -2.598640024678489
ltoes -7.4689205650525885
rfemur -15.690238944557521 1.3667567137483136 36.217770254859346
rtibia 61.40725782707952
rfoot -16.117603833359816 -17.68278012186457
rtoes -6.68371697309926
lowerback 15.275223096500724 0.2920762683676005 5.376563669594533
upperback -1.480731225821765 1.4901853708156947 3.087825229246026
thorax -8.533148932011235 0.5622582847527527 0.6403135148353503
lowerneck -19.678258456739044 -3.326484837450678 -2.781246279118575
upperneck 13.894423402794807 -4.090363909658049 2.6057770786717516
head 8.040425831306203 -1.7591818487787636 0.686782012860834
lclavicle -1.7151641706163927e-15 1.7935487178590642e-15
lhumerus -56.75823492558617 -15.231924214299953 100.73293076952176
lradius 93.41519208804928
lwrist 31.68381005483566
lhand -24.61586046821414 3.163537455502769
lfingers 7.12502
lthumb 2.0107265638629728 33.28419308843751
rclavicle -1.717894295568083e-15 1.7906075078765965e-15
rhumerus -48.579179911181235 8.153444044059817 -96.25499280259174
rradius 111.8199611394697
rwrist -11.647772132118718
rhand -16.783094977346444 39.786317136378855
rfingers 7.12502
rthumb 9.971353222619047 10.320521017960143
48
root 0.12928795711510968 17.543150401911003 15.422403742047695 6.659483149672049 0.22498291285439942 -5.63582631000937
lfemur -30.177418120399878 3.7203856040936825 -13.198581731235123
ltibia 98.5942140179531
lfoot -5.811712166344253 -2.1255389260760653
ltoes -11.919041754395792
rfemur -12.621043350327026 2.2061733091361866 35.962341306130114
rtibia 60.05450153003186
rfoot -13.929476383787565 -15.732905299953316
rtoes -10.233709424703214
lowerback 14.68735255449927 0.8595021842093407 5.492814452067044
upperback -1.7539578758204541 2.3196636901792953 2.812813210524379
thorax -8.346866069568181 0.9318922116422388 0.0561901180831198
lowerneck -19.59108540084378 -3.4481693290742115 -2.942608573318363
upperneck 14.450803060284615 -4.260450931537964 2.785459215469429
head 8.218172335120137 -1.816550880748226 0.765505596153196
lclavicle -1.7137397627050442e-15 1.794559779114041e-15
lhumerus -59.416404812945075 -15.397818002440632 100.86584468183318
lradius 95.20331714683135
lwrist 31.631258027745606
lhand -24.25371162280358 2.8346452763087617
lfingers 7.12502
lthumb 2.4012821258737365 33.11120947704201
rclavicle -1.718953598294845e-15 1.790150945437977e-15
rhumerus -47.292959563918416 9.356809240649184 -96.48814078981393
rradius 113.33341287569357
rwrist -11.004300011982034
rhand -16.958072002414283 39.83745164438031
rfingers 7.12502
rthumb 9.796408378239125 10.593658528329078
49
root 0.16509870423819498 17.756620634840065 16.490098176275442 6.903564172373203 0.7616622897997333 -5.622144110921676
lfemur -32.53874740195274 2.9416311158293116 -13.328503762585935
ltibia 93.71243930536576
lfoot -6.465735389628339 -2.2884778123659233
ltoes -14.446389812889013
rfemur -9.63984431227194 2.3817888296098375 35.786978740029134
rtibia 58.017935382379136
rfoot -10.653540610227772 -12.673989383790456
rtoes -12.296716017469981
lowerback 14.093958257849494 1.1549233582234373 5.839423160703981
upperback -1.9767524720952077 2.7974363737959393 2.482311926130217
thorax -8.13627279537243 1.1103597352542305 -0.7704868203319822
lowerneck -19.45104872525344 -3.4757152553843658 -3.020136979807917
upperneck 15.054490786264616 -4.284272462892376 2.865993770468535
head 8.355891175190802 -1.815521469498408 0.8221953265742545
lclavicle -1.7144810768669934e-15 1.7940253795972125e-15
lhumerus -61.74827906152258 -14.991288138546372 100.68453968677116
lradius 96.8040037277502
lwrist 32.17715945553032
lhand -24.082657156844792 2.624070113980944
lfingers 7.12502
lthumb 2.455511527659362 33.02532514227752
rclavicle -1.7210876172742692e-15 1.7885097093902906e-15
rhumerus -46.331530714558674 10.549984417902884 -96.67491887477625
rradius 114.99145004023023
rwrist -10.117738413724593
rhand -17.010651773586446 39.85770088927698
rfingers 7.12502
rthumb 9.635708496448679 10.701831037939895
50
root 0.19933319994085189 18.022658669709728 17.52881202712657 6.509189092872429 1.322471393444791 -5.206613049720875
lfemur -34.07191962250703 1.8295875497972327 -14.011983806353765
ltibia 87.39857108153234
lfoot -6.661949269987351 -3.118095037581674
ltoes -16.587872966569872
rfemur -6.466675100093417 2.242207812828547 35.19392142423092
rtibia 55.18323533792261
rfoot -5.486525031456816 -8.8213784044633
rtoes -12.716528403419323
lowerback 13.76476048477307 1.3710198435124936 5.699065953879252
upperback -2.082834653640893 3.023751006129299 2.091804846429095
thorax -8.106903914348333 1.185817641442008 -1.4299095230164585
lowerneck -19.361643599412275 -3.530390348391037 -3.096812989137601
upperneck 15.72263696164697 -4.338583145305133 2.9054134053232814
head 8.463697113755003 -1.854029597002115 0.8604589232821553
lclavicle -1.7156272110755175e-15 1.7931857202968403e-15
lhumerus -63.79376455438688 -13.97984940553789 100.32728051473735
lradius 98.12419918010148
lwrist 33.439864391215565
lhand -24.01392079379086 1.653057666778162
lfingers 7.12502
lthumb 2.499888129299409 32.1740428457524
rclavicle -1.7203782253994228e-15 1.788749969065755e-15
rhumerus -45.76255642306974 11.712162560798383 -96.7465562124081
rradius 116.66407918222998
rwrist -9.325560938193432
rhand -16.954159844091212 39.827080533129894
rfingers 7.12502
rthumb 9.698008081051363 10.576888475882559
51
root 0.23432487588275205 18.20688412474287 18.659073263411326 5.815395457792407 1.7843912450411832 -4.17606607002287
lfemur -34.58242950171594 0.5362102205814909 -15.446502425689182
ltibia 80.31797309936235
lfoot -6.547163576424457 -4.129239192616483
ltoes -17.769751395825363
rfemur -3.514932620815081 1.9682453346051572 34.013652339752625
rtibia 52.0401231239071
rfoot 0.9774647363529905 -4.781847875580592
rtoes -9.329052260359404
lowerback 13.401388706417022 1.589279302393122 4.902270956470195
upperback -2.0095858111937615 3.12112372412769 1.5500149978507762
thorax -8.021241591475059 1.245188058893483 -1.818600893110367
lowerneck -19.16448150272458 -3.437442827089591 -2.983751474610499
upperneck 16.3961264264632 -4.174212787226995 2.673098926972826
head 8.533279261816832 -1.80778561259094 0.7973889844653892
lclavicle -1.7150890828961013e-15 1.793566268111626e-15
lhumerus -65.4698816721592 -12.634193006564807 99.7145573554541
lradius 99.00499171453087
lwrist 34.79164678683595
lhand -24.691206945856663 2.1666813765617454
lfingers 7.12502
lthumb 1.9675345486276439 32.201140593053104
rclavicle -1.720394798971572e-15 1.788738137287641e-15
rhumerus -45.56626788560217 12.733500258235665 -96.75898943550499
rradius 118.18482980545076
rwrist -8.469081055009164
rhand -16.960069849173504 39.69701875732561
rfingers 7.12502
rthumb 9.978596992217096 10.370958751157843
52
root 0.28374983330011583 18.38602048423095 19.79820388505253 6.051737888270379 2.8367418984736306 -3.2816082171391416
lfemur -34.473410088072555 -1.3257916538523833 -16.65144965188812
ltibia 72.56189064559183
lfoot -6.095862504067609 -5.122145851587225
ltoes -19.148798900048654
rfemur -1.4606194834116444 1.570839795925541 32.96612268592855
rtibia 48.71535302135308
rfoot 8.275381371285714 -1.8522877205358323
rtoes -6.016122128985431
lowerback 12.490517962453652 1.6203410671983074 4.527244286471567
upperback -2.3216780491149596 3.0459539716076858 1.0121834578265245
thorax -7.898150684409548 1.2056585839939555 -2.324338554308516
lowerneck -19.017167807703 -3.4748021879307114 -2.9688259128551824
upperneck 17.08867429003381 -4.2210216726275664 2.5691541637527493
head 8.631080038512675 -1.8528463408541733 0.7522419145196021
lclavicle -1.7159817128588528e-15 1.792963482823785e-15
lhumerus -67.0245844268354 -11.148266514367126 98.99450232489188
lradius 99.91854248220908
lwrist 35.77302979306426
lhand -25.4015023029087 2.419030051891391
lfingers 7.12502
lthumb 1.233053124871318 32.385947326626926
rclavicle -1.720461584611597e-15 1.7885449363621194e-15
rhumerus -45.59216607812605 13.438465571946807 -96.73704430789176
rradius 119.4359095036794
rwrist -7.885141493924673
rhand -16.450367866151847 39.72241505850423
rfingers 7.12502
rthumb 9.988946816124503 10.900080015566852
53
root 0.3113194811036032 18.51164142057374 20.819431829571233 5.868992418611239 3.363837915159553 -3.0951424453724665
lfemur -33.60560179145275 -2.405357151856228 -16.940962074766635
ltibia 64.47132043013025
lfoot -5.168121860237767 -6.149246069276632
ltoes -21.103576483500518
rfemur 0.33950364918763043 2.0093794306501076 32.68967869541086
rtibia 45.02515592013495
rfoot 15.720518969326076 -0.5125927549181757
rtoes 2.19165469923915
lowerback 12.214107822235073 1.7647959919451728 4.675734058725348
upperback -2.6259545021840363 3.246119880658531 0.7654313872078806
thorax -8.094803973010377 1.3066065991043692 -2.855157505754206
lowerneck -18.672377894386027 -3.4150197558629287 -3.0018621863371058
upperneck 17.567114766772757 -4.100445999486393 2.503400913482976
head 8.718961266806355 -1.8133399597517292 0.7402195390790867
lclavicle -1.7157797268711494e-15 1.7931169783376874e-15
lhumerus -68.37512565552345 -9.747802703449535 98.21824802770334
lradius 101.03679299039929
lwrist 36.10577529124863
lhand -25.72978439004241 2.686741819189578
lfingers 7.12502
lthumb 0.8487502068316826 32.660359758271305
rclavicle -1.716517932195013e-15 1.7912466869903093e-15
rhumerus -45.681460613791856 13.903500245125379 -96.77040865264148
rradius 120.51789271002173
rwrist -7.600834712266275
rhand -15.888662705603801 39.82935114492732
rfingers 7.12502
rthumb 9.885035608331922 10.784402458790218
